HIERARCHY
ROOT Hips
{
  OFFSET 5.84602e-005 68.8428 3.50346
  CHANNELS 6 Xposition Yposition Zposition Zrotation Xrotation Yrotation
  JOINT Spine
  {
    OFFSET 0 8.597 -4.6522
    CHANNELS 3 Zrotation Xrotation Yrotation
    JOINT Spine1
    {
      OFFSET 0 7.8454 0.4098
      CHANNELS 3 Zrotation Xrotation Yrotation
      JOINT Spine2
      {
        OFFSET 0 9.7078 -2.1609
        CHANNELS 3 Zrotation Xrotation Yrotation
        JOINT Neck
        {
          OFFSET 0 21.8761 -0.4549
          CHANNELS 3 Zrotation Xrotation Yrotation
          JOINT Head
          {
            OFFSET 0 12.3537 3.3602
            CHANNELS 3 Zrotation Xrotation Yrotation
            End Site
            {
              OFFSET 0.0001 18.9506 0.5657
            }
          }
        }
        JOINT LeftShoulder
        {
          OFFSET 2.2086 21.1115 7.2329
          CHANNELS 3 Zrotation Xrotation Yrotation
          JOINT LeftArm
          {
            OFFSET 13.1193 3.0282 -4.8998
            CHANNELS 3 Zrotation Xrotation Yrotation
            JOINT LeftForeArm
            {
              OFFSET 27.4081 -0.0973053 -0.2375
              CHANNELS 3 Zrotation Xrotation Yrotation
              JOINT LeftHand
              {
                OFFSET 22.8641 0.0662994 -0.1369
                CHANNELS 3 Zrotation Xrotation Yrotation
                JOINT LeftHandIndex1
                {
                  OFFSET 8.8614 0.775009 2.4612
                  CHANNELS 3 Zrotation Xrotation Yrotation
                  JOINT LeftHandIndex2
                  {
                    OFFSET 3.3146 -0.808304 0.5841
                    CHANNELS 3 Zrotation Xrotation Yrotation
                    JOINT LeftHandIndex3
                    {
                      OFFSET 2.2628 -0.552002 0.3989
                      CHANNELS 3 Zrotation Xrotation Yrotation
                      End Site
                      {
                        OFFSET 1.6102 -0.4807 0.2612
                      }
                    }
                  }
                }
                JOINT LeftHandMiddle1
                {
                  OFFSET 8.9937 0.895004 0.2143
                  CHANNELS 3 Zrotation Xrotation Yrotation
                  JOINT LeftHandMiddle2
                  {
                    OFFSET 4.0984 0.0113983 -0.0242
                    CHANNELS 3 Zrotation Xrotation Yrotation
                    JOINT LeftHandMiddle3
                    {
                      OFFSET 2.2716 0.00689697 -0.0138001
                      CHANNELS 3 Zrotation Xrotation Yrotation
                      End Site
                      {
                        OFFSET 2.0404 -0.1441 0.0027
                      }
                    }
                  }
                }
                JOINT LeftHandRing1
                {
                  OFFSET 8.5234 0.597198 -2.0164
                  CHANNELS 3 Zrotation Xrotation Yrotation
                  JOINT LeftHandRing2
                  {
                    OFFSET 3.7188 -0.188293 -0.2328
                    CHANNELS 3 Zrotation Xrotation Yrotation
                    JOINT LeftHandRing3
                    {
                      OFFSET 2.1191 -0.106598 -0.1332
                      CHANNELS 3 Zrotation Xrotation Yrotation
                      End Site
                      {
                        OFFSET 1.8737 -0.2304 -0.0886
                      }
                    }
                  }
                }
                JOINT LeftHandPinky1
                {
                  OFFSET 7.9094 -0.601089 -3.4825
                  CHANNELS 3 Zrotation Xrotation Yrotation
                  JOINT LeftHandPinky2
                  {
                    OFFSET 2.2874 -0.477005 -0.6314
                    CHANNELS 3 Zrotation Xrotation Yrotation
                    JOINT LeftHandPinky3
                    {
                      OFFSET 1.6774 -0.349396 -0.4633
                      CHANNELS 3 Zrotation Xrotation Yrotation
                      End Site
                      {
                        OFFSET 1.4888 -0.4091 -0.3416
                      }
                    }
                  }
                }
                JOINT LeftHandThumb1
                {
                  OFFSET 1.833 -1.3875 1.3896
                  CHANNELS 3 Zrotation Xrotation Yrotation
                  JOINT LeftHandThumb2
                  {
                    OFFSET 3.4129 -1.121 2.5732
                    CHANNELS 3 Zrotation Xrotation Yrotation
                    JOINT LeftHandThumb3
                    {
                      OFFSET 2.2474 -0.804199 1.6192
                      CHANNELS 3 Zrotation Xrotation Yrotation
                      End Site
                      {
                        OFFSET 1.6527 -0.5689 1.1317
                      }
                    }
                  }
                }
              }
            }
          }
        }
        JOINT RightShoulder
        {
          OFFSET -2.2086 21.1115 7.2329
          CHANNELS 3 Zrotation Xrotation Yrotation
          JOINT RightArm
          {
            OFFSET -13.1216 3.0287 -4.9007
            CHANNELS 3 Zrotation Xrotation Yrotation
            JOINT RightForeArm
            {
              OFFSET -27.4081 -0.0973053 -0.2375
              CHANNELS 3 Zrotation Xrotation Yrotation
              JOINT RightHand
              {
                OFFSET -22.8641 0.0664063 -0.1369
                CHANNELS 3 Zrotation Xrotation Yrotation
                JOINT RightHandIndex1
                {
                  OFFSET -8.8614 0.774994 2.4612
                  CHANNELS 3 Zrotation Xrotation Yrotation
                  JOINT RightHandIndex2
                  {
                    OFFSET -3.3146 -0.808304 0.5841
                    CHANNELS 3 Zrotation Xrotation Yrotation
                    JOINT RightHandIndex3
                    {
                      OFFSET -2.2628 -0.552002 0.3989
                      CHANNELS 3 Zrotation Xrotation Yrotation
                      End Site
                      {
                        OFFSET -1.6102 -0.4807 0.2612
                      }
                    }
                  }
                }
                JOINT RightHandMiddle1
                {
                  OFFSET -8.9937 0.894989 0.2143
                  CHANNELS 3 Zrotation Xrotation Yrotation
                  JOINT RightHandMiddle2
                  {
                    OFFSET -4.0984 0.0113983 -0.0242
                    CHANNELS 3 Zrotation Xrotation Yrotation
                    JOINT RightHandMiddle3
                    {
                      OFFSET -2.2716 0.00691223 -0.0138001
                      CHANNELS 3 Zrotation Xrotation Yrotation
                      End Site
                      {
                        OFFSET -2.0404 -0.1441 0.0027
                      }
                    }
                  }
                }
                JOINT RightHandRing1
                {
                  OFFSET -8.5234 0.597198 -2.0164
                  CHANNELS 3 Zrotation Xrotation Yrotation
                  JOINT RightHandRing2
                  {
                    OFFSET -3.7188 -0.188309 -0.2328
                    CHANNELS 3 Zrotation Xrotation Yrotation
                    JOINT RightHandRing3
                    {
                      OFFSET -2.1191 -0.106598 -0.1332
                      CHANNELS 3 Zrotation Xrotation Yrotation
                      End Site
                      {
                        OFFSET -1.8737 -0.2304 -0.0886
                      }
                    }
                  }
                }
                JOINT RightHandPinky1
                {
                  OFFSET -7.9094 -0.601105 -3.4825
                  CHANNELS 3 Zrotation Xrotation Yrotation
                  JOINT RightHandPinky2
                  {
                    OFFSET -2.2874 -0.477005 -0.6314
                    CHANNELS 3 Zrotation Xrotation Yrotation
                    JOINT RightHandPinky3
                    {
                      OFFSET -1.6774 -0.349396 -0.4633
                      CHANNELS 3 Zrotation Xrotation Yrotation
                      End Site
                      {
                        OFFSET -1.4888 -0.4091 -0.3416
                      }
                    }
                  }
                }
                JOINT RightHandThumb1
                {
                  OFFSET -1.833 -1.38751 1.3896
                  CHANNELS 3 Zrotation Xrotation Yrotation
                  JOINT RightHandThumb2
                  {
                    OFFSET -3.41299 -1.12099 2.5732
                    CHANNELS 3 Zrotation Xrotation Yrotation
                    JOINT RightHandThumb3
                    {
                      OFFSET -2.24741 -0.804108 1.6192
                      CHANNELS 3 Zrotation Xrotation Yrotation
                      End Site
                      {
                        OFFSET -1.6527 -0.5689 1.1317
                      }
                    }
                  }
                }
              }
            }
          }
        }
      }
    }
  }
  JOINT RightUpLeg
  {
    OFFSET -9.1966 3.8861 -0.7581
    CHANNELS 3 Zrotation Xrotation Yrotation
    JOINT RightLeg
    {
      OFFSET -0.7359 -41.0265 0
      CHANNELS 3 Zrotation Xrotation Yrotation
      JOINT RightFoot
      {
        OFFSET 0 -40.2855 0
        CHANNELS 3 Zrotation Xrotation Yrotation
        JOINT RightToeBase
        {
          OFFSET 0 -5.6122 11.7359
          CHANNELS 3 Zrotation Xrotation Yrotation
          End Site
          {
            OFFSET 0 0 7.8731
          }
        }
      }
    }
  }
  JOINT LeftUpLeg
  {
    OFFSET 9.1965 3.8864 -0.7581
    CHANNELS 3 Zrotation Xrotation Yrotation
    JOINT LeftLeg
    {
      OFFSET 0.7359 -41.0268 0
      CHANNELS 3 Zrotation Xrotation Yrotation
      JOINT LeftFoot
      {
        OFFSET 0 -40.2855 0
        CHANNELS 3 Zrotation Xrotation Yrotation
        JOINT LeftToeBase
        {
          OFFSET 0 -5.6122 11.7359
          CHANNELS 3 Zrotation Xrotation Yrotation
          End Site
          {
            OFFSET 0 0 7.8731
          }
        }
      }
    }
  }
}
MOTION
Frames:	6
Frame Time:	0.0333333
5.84602e-005 68.8428 3.50346 0 0 -0 0 0 -0 0 0 -0 0 0 -0 0 0 -0 0 0 -0 0 0 -0 0 0 -0 0 0 -0 0 0 -0 0 0 -0 0 0 -0 0 0 -0 0 0 -0 -0.0146107 -8.87603e-005 -2.63497e-007 2.99804e-018 -2.42657e-020 -1.42182e-022 0 0 -0 -0.0187562 -0.001176 5.858e-005 5.06224e-018 3.88251e-019 1.21329e-020 0 0 -0 -0.012269 -0.00324817 0.000675346 -1.74678e-018 3.88251e-019 -0 0 0 -0 0 0 -0 0 0 -0 0 0 -0 0 0 -0 0 0 -0 0 0 -0 0 0 -0 0 0 -0 0 0 -0 0 0 -0 0.0149955 -9.10982e-005 2.64101e-007 -9.69331e-018 1.21329e-020 -4.7394e-023 0 0 -0 0.0189956 -0.00119102 -5.96516e-005 -5.41541e-019 0 2.42657e-020 0 0 -0 0.0122698 -0.00324857 -0.000673756 -2.00796e-019 0 -1.94126e-019 0 0 -0 0 0 -0 0 0 -0 3.39842 1.33031 -0.0637918 -5.65207e-008 0.834868 -0.000436188 -3.39935 -2.16518 -0.0642563 -8.89002e-024 -1.18485e-023 -1.48106e-024 -3.39844 1.35642 0.0640283 -3.18788e-007 0.782166 -0.000588827 3.39931 -2.13858 0.0634662 1.1399e-023 0 -0 
-20.9305 69.35 2.92831 -0.690309 -19.9006 77.5585 -0.0281903 0.444644 -0.0914654 -0.0556781 0.889328 -0.182684 -0.0556702 0.889333 -0.18271 -2.37941e-005 -0.442462 4.12992e-005 -1.67962e-006 -0.190564 1.08479e-005 -3.41165 0.16715 10.1978 -1.58122 -38.2659 7.30523 -24.2347 8.9375 -31.7291 -7.73795 -1.39591 -3.10675 6.53086e-007 -3.2834e-007 -4.39936e-007 3.26543e-007 -1.6417e-007 -2.19968e-007 -3.26543e-007 1.6417e-007 2.19968e-007 6.53086e-007 -3.2834e-007 -4.39936e-007 -0.0144889 -8.20613e-005 9.48536e-007 -3.26541e-007 1.64142e-007 2.19989e-007 6.53086e-007 -3.2834e-007 -4.39936e-007 -0.018806 -0.00118192 5.45567e-005 -3.26538e-007 1.64134e-007 2.19998e-007 6.53086e-007 -3.2834e-007 -4.39936e-007 -0.0122708 -0.00324849 0.00067677 -3.26534e-007 1.64149e-007 2.19995e-007 6.53086e-007 -3.2834e-007 -4.39936e-007 3.26543e-007 -1.6417e-007 -2.19968e-007 -3.26543e-007 1.6417e-007 2.19968e-007 3.66844 0.0828676 -5.67709 41.753 17.6903 -6.03318 23.7881 8.50705 31.2723 5.18283 -4.78593e-006 5.0163e-006 -6.36111e-015 4.77083e-015 -1.27222e-014 1.12555e-030 4.77083e-015 -1.35174e-014 -6.36111e-015 1.59028e-015 -1.43125e-014 -6.36111e-015 4.77083e-015 -1.27222e-014 0.014937 -9.02947e-005 -4.56703e-006 3.18055e-015 -4.77083e-015 -1.59028e-015 -6.36111e-015 4.77083e-015 -1.27222e-014 0.0190385 -0.00119106 -6.19098e-005 1.27222e-014 3.18055e-015 1.59028e-015 -6.36111e-015 4.77083e-015 -1.27222e-014 0.0122144 -0.00323207 -0.000676515 -6.36111e-015 -1.59028e-015 -2.38542e-015 -6.36111e-015 4.77083e-015 -1.27222e-014 1.12555e-030 4.77083e-015 -1.35174e-014 -6.36111e-015 1.59028e-015 -1.43125e-014 -1.73608 0.141461 -6.58617 4.47361 12.8807 -1.34688 -9.58645 -7.60933 4.1812 -1.00744e-006 -1.3242e-006 -3.16209e-007 2.62856 3.43385 3.38506 -2.56157 5.58338 0.466797 6.12087 -3.81823 -1.6828 9.88477e-007 2.74349e-008 -6.26923e-006 
-31.484 68.9809 -0.749572 2.03639 6.63211 90.652 -0.0480278 0.652737 -0.130869 -0.0945846 1.30562 -0.261202 -0.0945853 1.30562 -0.261199 -2.0329e-005 -0.880864 -1.23557e-005 -5.11318e-007 -0.275521 6.12628e-007 -4.96618 0.238326 14.7869 3.13517 -54.9397 14.5688 -32.1579 10.6043 -46.4031 -11.1899 -2.12672 -4.55931 1.51953e-006 -1.90299e-006 -4.16575e-006 2.84264e-006 -1.05385e-006 -1.32311e-006 2.84264e-006 -1.05385e-006 -1.32311e-006 1.51953e-006 -1.90299e-006 -4.16575e-006 -0.0146467 -8.73345e-005 4.10778e-006 2.84275e-006 -1.05368e-006 -1.32325e-006 1.51953e-006 -1.90299e-006 -4.16575e-006 -0.0187051 -0.00117645 6.13008e-005 2.84277e-006 -1.05362e-006 -1.32331e-006 1.51953e-006 -1.90299e-006 -4.16575e-006 -0.0123087 -0.00326004 0.000680793 2.84269e-006 -1.0537e-006 -1.32331e-006 1.51953e-006 -1.90299e-006 -4.16575e-006 2.84264e-006 -1.05385e-006 -1.32311e-006 2.84264e-006 -1.05385e-006 -1.32311e-006 5.32457 0.119725 -8.23186 61.8796 25.493 -9.23933 31.6886 10.1608 45.7042 7.5151 -6.42455e-006 -1.67984e-006 -6.36111e-015 -1.03368e-014 7.95139e-015 5.29669e-031 -1.27222e-014 2.38542e-015 -1.21382e-031 -8.74653e-015 -7.95139e-016 -6.36111e-015 -1.03368e-014 7.95139e-015 0.0150079 -9.47523e-005 -8.00052e-007 3.18055e-015 3.18055e-015 7.95139e-016 -6.36111e-015 -1.03368e-014 7.95139e-015 0.0189842 -0.00118925 -6.1152e-005 -6.36111e-015 3.97569e-015 -0 -6.36111e-015 -1.03368e-014 7.95139e-015 0.0122549 -0.00324359 -0.000683628 -6.36111e-015 -3.18055e-015 -4.77083e-015 -6.36111e-015 -1.03368e-014 7.95139e-015 5.29669e-031 -1.27222e-014 2.38542e-015 -1.21382e-031 -8.74653e-015 -7.95139e-016 -3.26366 3.25949 -9.439 6.44357 10.5634 -1.40393 -12.3989 -6.12953 6.45055 -5.90147e-007 4.97418e-007 8.5717e-008 5.47089 1.26913 4.92897 -3.80849 13.8361 0.972084 7.34968 -7.67849 -2.29558 2.88999e-007 -3.08419e-007 5.41566e-008 
-29.1198 68.9818 0.0263047 1.72042 -0.00248261 89.9994 -0.0432938 0.62444 -0.122326 -0.0852613 1.24908 -0.244241 -0.0852614 1.24908 -0.244243 -2.40602e-006 -1.31508 1.18763e-005 -4.66603e-008 -0.254867 1.6663e-006 -4.61972 0.222865 13.7671 1.49989 -51.3042 12.4323 -30.508 10.4189 -43.1337 -10.242 -2.20022 -4.35412 1.59028e-014 1.59028e-015 3.18055e-015 -1.38142e-006 5.97836e-007 7.3628e-007 -3.18055e-015 3.18055e-015 -6.36111e-015 1.59028e-014 1.59028e-015 3.18055e-015 -0.0146399 -9.01327e-005 3.67993e-006 0 4.77083e-015 -0 1.59028e-014 1.59028e-015 3.18055e-015 -0.0187078 -0.00117411 5.20063e-005 7.80969e-007 1.73696e-007 2.17864e-006 1.59028e-014 1.59028e-015 3.18055e-015 -0.0122721 -0.00324868 0.000676409 -9.54166e-015 1.59028e-015 3.18055e-015 1.59028e-014 1.59028e-015 3.18055e-015 -1.38142e-006 5.97836e-007 7.3628e-007 -3.18055e-015 3.18055e-015 -6.36111e-015 4.95625 0.111592 -7.66412 57.3239 23.7732 -8.48271 30.0387 9.96435 42.4884 6.99682 -1.63935e-006 1.07057e-005 -1.02634e-006 -1.09268e-006 -1.43993e-006 -1.94246e-006 -1.84266e-006 -1.94657e-006 -9.16115e-007 -7.49978e-007 -5.06641e-007 -1.02634e-006 -1.09268e-006 -1.43993e-006 0.0150102 -9.5297e-005 -8.27687e-007 -9.71285e-007 -9.21457e-007 -9.73163e-007 -1.02634e-006 -1.09268e-006 -1.43993e-006 0.0190117 -0.00118952 -6.10768e-005 -9.71309e-007 -9.21487e-007 -9.73121e-007 -1.02634e-006 -1.09268e-006 -1.43993e-006 0.012336 -0.00326554 -0.000675754 -9.71297e-007 -9.21428e-007 -9.73155e-007 -1.02634e-006 -1.09268e-006 -1.43993e-006 -1.94246e-006 -1.84266e-006 -1.94657e-006 -9.16115e-007 -7.49978e-007 -5.06641e-007 -2.89151 2.50065 -8.81898 6.00098 10.67 -1.37933 -11.8125 -6.26458 5.95113 3.19962e-007 -8.95391e-007 -4.8786e-008 4.74983 1.83184 4.59145 -3.51141 11.2659 0.811867 7.12156 -6.44902 -2.18434 7.91553e-008 7.48674e-009 -1.9323e-007 
-29.1732 68.97 0.0263127 1.53524 -0.00248267 89.9993 -0.043304 0.639248 -0.122446 -0.0852499 1.27858 -0.244408 -0.0852493 1.27858 -0.244413 -6.72085e-006 -1.75054 -8.18527e-007 1.7785e-007 -0.253415 1.13026e-005 -4.61972 0.222843 13.7671 1.49987 -51.3042 12.4323 -30.508 10.4189 -43.1337 -10.0969 -2.39332 -4.44991 -2.76215e-006 1.19754e-006 1.47198e-006 2.85306e-006 5.8921e-008 2.02616e-006 1.38108e-006 -5.98768e-007 -7.35991e-007 -2.76215e-006 1.19754e-006 1.47198e-006 -0.014564 -8.92215e-005 4.16443e-006 1.38112e-006 -5.98674e-007 -7.36068e-007 -2.76215e-006 1.19754e-006 1.47198e-006 -0.0188203 -0.00117681 5.8453e-005 5.92009e-007 -7.74351e-007 -2.92073e-006 -2.76215e-006 1.19754e-006 1.47198e-006 -0.01217 -0.00322351 0.00067454 1.38109e-006 -5.98689e-007 -7.36095e-007 -2.76215e-006 1.19754e-006 1.47198e-006 2.85306e-006 5.8921e-008 2.02616e-006 1.38108e-006 -5.98768e-007 -7.35991e-007 4.95625 0.111569 -7.66413 57.3239 23.7732 -8.48274 30.0387 9.96435 42.4884 6.99684 -1.21941e-005 -7.85504e-006 6.36111e-015 4.77083e-015 3.18055e-015 9.70287e-007 9.23522e-007 9.71194e-007 6.36111e-015 -1.11319e-014 1.59028e-015 6.36111e-015 4.77083e-015 3.18055e-015 0.0149759 -9.60855e-005 3.90893e-006 3.18055e-015 4.77083e-015 7.95139e-016 6.36111e-015 4.77083e-015 3.18055e-015 0.0189764 -0.00119059 -5.9986e-005 -2.20695e-032 -1.59028e-015 -7.95139e-016 6.36111e-015 4.77083e-015 3.18055e-015 0.012237 -0.00323736 -0.000668232 -6.28918e-008 -1.62054e-007 -4.41038e-007 6.36111e-015 4.77083e-015 3.18055e-015 9.70287e-007 9.23522e-007 9.71194e-007 6.36111e-015 -1.11319e-014 1.59028e-015 -2.89116 2.27378 -8.82959 6.00098 10.6701 -1.3793 -11.8125 -6.26458 5.95113 -2.94164e-007 -3.07074e-007 -3.70144e-008 4.74896 1.60583 4.60004 -3.5114 11.2647 0.811871 7.12155 -6.44852 -2.18436 -2.94681e-007 3.06814e-007 -3.45828e-008 
-29.2267 68.9582 0.026324 1.35007 -0.00248318 89.9992 -0.043315 0.65404 -0.122537 -0.0852397 1.30817 -0.244596 -0.0852397 1.30817 -0.244598 1.612e-005 -2.18626 1.75818e-005 3.94766e-008 -0.251963 -3.07467e-006 -4.61971 0.22267 13.7671 1.49992 -51.3043 12.4323 -30.508 10.4189 -43.1337 -9.95214 -2.58666 -4.54523 9.54166e-015 1.59028e-015 3.18055e-015 9.54166e-015 0 6.36111e-015 9.54166e-015 -4.77083e-015 3.18055e-015 9.54166e-015 1.59028e-015 3.18055e-015 -0.0147197 -9.05622e-005 -3.53974e-006 -6.36111e-015 1.59028e-015 3.18055e-015 9.54166e-015 1.59028e-015 3.18055e-015 -0.0187649 -0.00117789 5.31221e-005 -3.18055e-015 0 -3.18055e-015 9.54166e-015 1.59028e-015 3.18055e-015 -0.0122469 -0.00324119 0.000670667 1.27222e-014 4.77083e-015 -3.18055e-015 9.54166e-015 1.59028e-015 3.18055e-015 9.54166e-015 0 6.36111e-015 9.54166e-015 -4.77083e-015 3.18055e-015 4.95627 0.111402 -7.66407 57.3239 23.7732 -8.48272 30.0387 9.96435 42.4884 6.99682 -4.08877e-007 1.3984e-005 9.69339e-007 9.25709e-007 9.691e-007 2.90802e-006 2.77713e-006 2.9073e-006 9.69339e-007 9.25709e-007 9.691e-007 9.69339e-007 9.25709e-007 9.691e-007 0.0150056 -8.50897e-005 -1.16863e-006 9.69395e-007 9.25835e-007 9.68978e-007 9.69339e-007 9.25709e-007 9.691e-007 0.0189973 -0.00118885 -5.87314e-005 9.69419e-007 9.25865e-007 9.68936e-007 9.69339e-007 9.25709e-007 9.691e-007 0.0122865 -0.00324895 -0.000677755 9.69406e-007 9.25806e-007 9.68971e-007 9.69339e-007 9.25709e-007 9.691e-007 2.90802e-006 2.77713e-006 2.9073e-006 9.69339e-007 9.25709e-007 9.691e-007 -2.89082 2.04706 -8.84019 6.00098 10.67 -1.37925 -11.8125 -6.26439 5.95112 -1.34958e-006 -1.79387e-007 -8.01656e-008 4.74816 1.37939 4.6087 -3.51139 11.2644 0.811843 7.12155 -6.44844 -2.18438 -2.94706e-007 3.068e-007 -3.44704e-008 
